<svg id="Layer_1" data-name="Layer 1" xmlns="http://www.w3.org/2000/svg" viewBox="0 0 24 24" stroke-width="1" width="24" height="24" color="#000000"><defs><style>.cls-637b74f4f95e86b59c579ede-1{fill:none;stroke:currentColor;stroke-miterlimit:10;}</style></defs><polyline class="cls-637b74f4f95e86b59c579ede-1" points="1.5 7.23 1.5 1.5 7.23 1.5"></polyline><polyline class="cls-637b74f4f95e86b59c579ede-1" points="16.77 1.5 22.5 1.5 22.5 7.23"></polyline><polyline class="cls-637b74f4f95e86b59c579ede-1" points="1.5 16.77 1.5 22.5 7.23 22.5"></polyline><polyline class="cls-637b74f4f95e86b59c579ede-1" points="16.77 22.5 22.5 22.5 22.5 16.77"></polyline><line class="cls-637b74f4f95e86b59c579ede-1" x1="12" y1="10.09" x2="12" y2="14.86"></line><path class="cls-637b74f4f95e86b59c579ede-1" d="M9.59,15.45a2.81,2.81,0,0,1-.45-1.54V11.05a2.86,2.86,0,1,1,5.72,0"></path><path class="cls-637b74f4f95e86b59c579ede-1" d="M14.86,13v1A2.86,2.86,0,0,1,12,16.77a2.63,2.63,0,0,1-.89-.14"></path><path class="cls-637b74f4f95e86b59c579ede-1" d="M6.27,13v-1.9a5.61,5.61,0,0,1,.54-2.42"></path><path class="cls-637b74f4f95e86b59c579ede-1" d="M6.36,14.86a5.71,5.71,0,0,0,10,2.81"></path><path class="cls-637b74f4f95e86b59c579ede-1" d="M17.73,11.05v2.86A5.69,5.69,0,0,1,17.34,16"></path><path class="cls-637b74f4f95e86b59c579ede-1" d="M7.91,7.05a5.71,5.71,0,0,1,8.14,0"></path></svg>